<svg width="1152" height="399" viewBox="0 0 1152 399" fill="none" xmlns="http://www.w3.org/2000/svg">
<path d="M1138.84 205.997C1141.76 208.986 1145.5 208.511 1149.03 208.511C1149.71 208.579 1150.52 209.326 1151.14 211.364L1149.44 213.47C1148.47 214.448 1147.27 215.147 1145.94 215.494C1144.61 215.841 1143.21 215.822 1141.9 215.44C1140.27 215.236 1139.31 213.81 1137 213.606C1134.69 213.402 1135.78 216.459 1134.29 217.274C1130.96 219.177 1127.15 217.478 1123.69 218.361C1121.85 218.837 1122.94 220.739 1123.21 221.147C1123.48 221.554 1123.82 221.011 1124.03 222.302C1124.23 223.592 1124.44 225.698 1122.94 225.698C1117.36 227.186 1111.98 229.33 1106.91 232.084C1104.72 232.534 1102.75 233.678 1101.27 235.345C1100.52 236.568 1102.08 239.082 1102.63 241.052C1102.98 242.834 1102.89 244.675 1102.37 246.416C1101.85 248.157 1100.91 249.743 1099.64 251.038C1095.62 255.849 1093.64 262.044 1094.13 268.293C1094.13 268.701 1093.39 269.448 1093.39 269.448C1091.89 271.351 1092.23 272.234 1094.75 272.845C1096.87 273.513 1098.92 274.401 1100.86 275.495C1101.35 275.722 1101.76 276.096 1102.04 276.565C1102.31 277.034 1102.43 277.576 1102.39 278.117C1102.34 278.658 1102.14 279.172 1101.79 279.59C1101.44 280.008 1100.98 280.31 1100.45 280.454C1096.04 282.803 1092.28 286.211 1089.51 290.372C1089.04 290.986 1088.74 291.719 1088.65 292.491C1088.57 293.264 1088.7 294.044 1089.03 294.748C1089.36 295.451 1089.88 296.049 1090.53 296.475C1091.18 296.902 1091.93 297.141 1092.71 297.166C1093.82 297.249 1094.91 297.557 1095.9 298.07C1096.89 298.584 1097.77 299.293 1098.48 300.155C1098.82 300.495 1099.7 300.562 1099.23 301.174L1099.18 301.237C1098.71 301.84 1098.12 302.601 1097.53 302.601C1094.42 303.2 1091.2 302.695 1088.43 301.174C1087.07 300.223 1084.15 303.008 1084.49 304.571C1084.83 306.133 1086.66 307.22 1083.67 308.171C1080.68 309.122 1080.82 309.394 1082.45 311.364L1085.71 315.304C1080.95 319.516 1085.91 326.174 1081.84 330.454C1080.95 331.405 1080.07 331.88 1082.38 332.356C1084.69 332.832 1086.93 332.832 1089.17 332.832C1090.04 333.027 1090.8 333.557 1091.29 334.307C1091.77 335.057 1091.94 335.966 1091.76 336.84C1091.28 340.644 1086.93 346.011 1083.26 346.011C1081.02 346.011 1078.98 343.226 1076.47 346.418C1074.7 348.389 1071.65 349.068 1069.68 350.834C1065.51 355.035 1059.89 357.468 1053.98 357.628C1051.33 357.628 1048.82 360.821 1045.83 357.628C1045.08 356.88 1043.11 357.832 1042.7 359.258C1041 365.644 1035.43 366.323 1030.41 367.818C1027.69 364.829 1025.92 367.071 1024.09 368.973C1023.75 369.312 1024.22 369.38 1023 369.856C1021.78 370.332 1019.94 370.875 1019.4 370.332C1016.27 367.546 1012.54 368.565 1009.07 368.158C1006.38 368.471 1003.66 367.974 1001.26 366.731C998.813 365.101 998.474 365.576 995.96 369.38C995.212 370.264 994.057 370.467 994.057 369.38C993.31 365.304 991.883 365.984 988.894 367.682C985.021 369.851 980.625 370.909 976.189 370.739C961.65 370.332 947.178 370.739 932.639 370.739C928.663 370.129 924.595 370.795 921.021 372.641C918.643 371.079 916.333 370.264 913.752 372.641C913.412 372.981 911.985 372.641 911.578 372.166C911.061 371.324 910.366 370.605 909.543 370.059C908.72 369.513 907.787 369.153 906.811 369.004C905.834 368.855 904.837 368.921 903.888 369.198C902.94 369.474 902.063 369.953 901.319 370.603C897.835 372.62 893.915 373.766 889.893 373.943C885.872 374.121 881.867 373.324 878.219 371.622C877.41 371.324 876.541 371.23 875.688 371.348C874.834 371.467 874.023 371.794 873.327 372.302C870.677 373.728 870.677 373.524 867.892 369.924C867.304 369.298 866.585 368.81 865.786 368.497C865.348 368.33 864.864 368.33 864.427 368.497C863.272 368.905 862.321 368.633 863.679 370.399C865.038 372.166 865.378 373.728 862.524 373.728C861.638 373.901 860.724 373.868 859.853 373.632C858.981 373.397 858.175 372.965 857.497 372.37L857.483 372.356C853.624 368.633 853.417 368.433 850.227 371.351C849.661 372.063 848.956 372.655 848.156 373.09C847.357 373.525 846.477 373.795 845.571 373.884C844.665 373.973 843.75 373.878 842.881 373.607C842.011 373.335 841.206 372.891 840.512 372.302C839.493 371.486 837.522 371.011 836.911 371.486C834.805 373.185 832.699 372.505 831.204 371.486C829.709 370.467 827.603 371.486 827.195 373.66C826.788 375.834 825.497 377.397 823.255 375.834C821.013 374.272 819.654 375.087 817.48 375.834C813.132 377.533 812.045 376.106 810.686 370.739C810.21 368.837 809.938 368.09 808.24 369.584C806.541 371.079 804.979 372.709 803.28 374.272C802.601 374.883 801.922 375.834 801.106 375.834C793.157 376.514 785.14 378.552 778.346 371.758C777.735 371.215 777.735 370.06 777.259 369.38C776.783 368.701 775.561 369.041 775.561 370.196C775.559 370.758 775.428 371.312 775.179 371.815C774.929 372.319 774.567 372.758 774.12 373.099C773.674 373.441 773.155 373.675 772.604 373.784C772.052 373.893 771.483 373.874 770.941 373.728C769.174 373.592 766.864 374 765.709 373.049C761.837 369.72 759.255 371.215 756.673 374.543C756.056 375.099 755.342 375.536 754.567 375.834C754.227 374.611 753.888 373.321 753.48 372.098L752.257 368.701C751.477 369.192 750.748 369.761 750.083 370.399C748.248 372.505 746.55 374.34 743.764 371.283C743.153 370.807 741.319 370.807 739.96 370.807C739.9 370.197 739.63 369.626 739.196 369.193C738.763 368.759 738.192 368.489 737.582 368.429C736.276 368.026 734.879 368.026 733.573 368.429C731.313 369.922 729.277 371.729 727.527 373.796C725.585 375.738 724.567 375.172 722.197 373.855L722.091 373.796C719.646 372.438 718.49 374.136 716.452 376.378C714.414 378.62 711.357 378.755 709.658 376.989C707.96 375.223 705.989 376.378 704.834 376.989C703.679 377.601 701.777 378.552 701.234 378.144C699.961 376.879 698.239 376.169 696.444 376.169C694.649 376.169 692.927 376.879 691.654 378.144C690.839 378.62 689.004 378.144 687.645 378.144C686.094 378.418 684.501 378.353 682.977 377.955C681.452 377.556 680.032 376.833 678.813 375.834C676.028 377.329 673.378 378.891 670.524 380.25C669.845 380.25 668.486 380.658 668.011 380.25C663.187 376.174 657.616 378.008 652.316 378.008C650.518 378.098 648.751 377.517 647.357 376.378C645.277 374.366 642.933 375.929 641.501 376.885L641.446 376.921C640.019 377.872 639.068 375.97 637.981 375.97C635.807 376.378 636.214 380.454 634.108 380.25C632.002 380.046 630.44 378.28 627.926 378.416C625.412 378.552 623.578 381.609 620.52 380.658C619.732 380.336 618.96 379.974 618.21 379.571C618.661 378.984 619.186 378.459 619.773 378.008C620.452 377.601 621.539 377.533 622.083 376.921C622.569 376.204 622.786 375.337 622.694 374.476C622.558 373.457 621.743 372.913 620.996 373.457C619.17 374.803 616.945 375.496 614.677 375.427C611.28 375.359 612.367 380.25 609.378 380.658C606.389 381.065 604.418 379.435 602.04 378.688C599.527 381.405 596.062 380.182 593.14 380.929C590.381 381.473 587.542 381.473 584.784 380.929C582.27 380.929 579.552 382.356 576.631 380.929C575.797 380.658 574.907 380.609 574.049 380.788C573.191 380.967 572.395 381.367 571.739 381.948C568.342 386.5 564.673 384.87 561.548 382.832C560.317 381.957 558.845 381.487 557.336 381.487C555.826 381.487 554.354 381.957 553.123 382.832C550.083 383.603 546.924 383.787 543.815 383.375C539.807 383.579 535.798 382.492 531.994 385.141C530.567 386.092 528.461 382.356 526.219 383.783C524.477 385.203 522.283 385.95 520.036 385.889C517.318 385.889 514.941 383.375 511.611 385.889C509.913 386.976 506.38 385.889 503.662 385.889H494.151H485.998C484.238 386.041 482.528 386.55 480.97 387.383C480.279 387.946 479.416 388.253 478.524 388.253C477.633 388.253 476.77 387.946 476.079 387.383C475.686 386.978 475.216 386.657 474.697 386.437C474.177 386.217 473.619 386.104 473.055 386.104C472.491 386.104 471.933 386.217 471.414 386.437C470.894 386.657 470.424 386.978 470.032 387.383C469.692 387.655 468.945 388.062 468.945 388.062C466.719 386.587 464.108 385.8 461.437 385.8C458.767 385.8 456.156 386.587 453.93 388.062C450.402 388.82 446.77 388.958 443.195 388.47C433.412 388.878 423.493 386.704 413.981 390.236C410.924 387.043 408.41 389.421 405.556 390.712C404.715 390.978 403.829 391.067 402.952 390.974C402.075 390.88 401.227 390.606 400.461 390.168C399.47 389.257 398.173 388.75 396.826 388.75C395.479 388.75 394.182 389.257 393.191 390.168C392.003 390.795 390.655 391.055 389.318 390.916H359.425C356.738 391.041 354.079 390.329 351.815 388.878C350.652 388.323 349.332 388.19 348.08 388.499C346.829 388.809 345.724 389.543 344.953 390.576C343.979 391.791 342.717 392.744 341.281 393.349C339.846 393.954 338.283 394.191 336.733 394.041C327.221 393.633 317.641 394.041 308.13 394.041C306.569 394.132 305.008 393.86 303.57 393.247C302.132 392.635 300.856 391.697 299.841 390.508C296.58 387.043 296.376 391.867 295.968 392.478C295.561 393.09 294.27 393.565 293.726 393.565C292.482 392.863 291.078 392.494 289.65 392.494C288.221 392.494 286.817 392.863 285.573 393.565C285.098 393.837 284.622 393.837 283.195 392.75C281.769 391.663 281.633 389.829 279.119 389.285C276.605 388.742 277.964 391.935 276.605 392.75C275.889 393.233 275.079 393.557 274.227 393.701C271.781 394.041 269.947 392.886 267.433 394.584C264.919 396.283 263.832 395.671 261.998 393.633C260.164 391.595 258.125 389.897 255.204 392.478C253.97 393.507 252.455 394.142 250.856 394.299C249.256 394.457 247.647 394.13 246.236 393.361C243.078 391.591 239.479 390.765 235.865 390.981C232.252 391.198 228.776 392.449 225.854 394.584C225.038 394.992 224.427 396.011 223.544 396.011C221.369 396.622 218.652 397.098 217.225 395.196C214.441 392.266 210.957 390.092 207.102 388.878C205.736 387.994 204.134 387.547 202.508 387.595C200.881 387.644 199.309 388.186 197.998 389.149C197.998 393.565 193.174 392.818 191.204 395.06C190.777 395.587 190.161 395.925 189.487 396.001C188.813 396.078 188.136 395.886 187.603 395.467C185.387 393.955 182.788 393.101 180.106 393.005C177.425 392.908 174.771 393.574 172.452 394.924C171.501 395.603 171.025 395.739 170.142 394.924C168.104 393.022 165.93 393.837 164.367 395.332C162.805 396.826 160.834 399.883 158.932 398.592C154.04 395.196 148.265 397.573 143.51 395.196C141.539 393.769 140.588 394.38 138.958 395.196C138.025 395.827 136.924 396.164 135.798 396.164C134.672 396.164 133.572 395.827 132.639 395.196C130.669 393.633 128.902 392.954 126.66 394.652C125.996 395.277 125.205 395.752 124.342 396.046C123.478 396.34 122.562 396.445 121.654 396.355C120.747 396.265 119.869 395.981 119.08 395.523C118.291 395.066 117.609 394.444 117.081 393.701C115.086 391.64 114.913 391.856 112.615 394.732L112.461 394.924C112.18 395.238 111.834 395.486 111.446 395.651C111.059 395.815 110.639 395.892 110.219 395.875C109.797 395.84 109.387 395.719 109.013 395.521C108.639 395.322 108.31 395.05 108.045 394.72C107.666 393.939 107.502 393.072 107.569 392.207C107.501 390.304 107.229 388.198 105.055 388.198C103.539 388.259 102.047 387.81 100.815 386.923C99.5839 386.037 98.6848 384.764 98.2612 383.307C97.5138 381.337 96.6306 380.59 99.4841 379.842C101.239 379.452 102.769 378.383 103.737 376.867C104.704 375.352 105.032 373.515 104.648 371.758C104.266 371.688 103.874 371.688 103.493 371.758C100.775 373.117 99.4841 377.397 96.0191 376.582C93.6412 376.106 91.8068 373.457 89.6327 372.03C88.8231 371.722 87.9285 371.722 87.1189 372.03C86.1677 372.302 86.1677 373.049 87.1189 374C88.1491 374.871 89.083 375.851 89.9045 376.921C90.448 377.465 90.448 378.28 90.448 379.027C86.5754 378.823 84.1975 385.073 79.7813 380.726C78.966 379.707 76.8599 380.25 76.0446 379.707C75.2293 379.163 74.414 379.435 73.5308 379.163C72.6476 378.891 72.104 376.31 72.6476 375.63C73.9205 373.796 75.6872 372.359 77.7431 371.486C79.354 370.79 80.7749 369.719 81.8875 368.361C82.5983 367.301 82.9332 366.034 82.8386 364.761C82.8386 364.353 81.4799 363.538 80.7325 363.538H67.1444H60.3503C60.0106 363.538 59.3312 362.859 59.3312 362.859C59.5257 362.108 59.8474 361.395 60.2824 360.753C60.8113 360.035 61.5107 359.461 62.3173 359.081C63.1239 358.702 64.0123 358.529 64.9023 358.579C66.9081 358.826 68.9433 358.521 70.7876 357.694C72.6319 356.868 74.215 355.553 75.3652 353.891C75.9588 353.416 76.6577 353.09 77.4034 352.94C77.1316 352.193 76.9958 351.174 76.4522 350.834C72.104 347.777 66.5329 347.845 61.9809 345.128C60.6221 344.312 58.6518 345.739 58.6518 348.049C58.6518 348.932 58.8556 350.087 58.6518 350.698C58.448 351.31 57.361 352.465 57.0892 352.125C56.8174 351.785 56.2739 351.514 56.2739 351.106C55.8662 349.408 56.2059 346.962 55.1868 346.147C52.3333 343.973 48.3249 344.924 45.5393 342.342C45.1996 342.003 44.2484 342.342 43.1614 342.954C42.0743 343.565 41.4628 344.72 39.7643 343.565C36.9108 341.663 32.7665 341.188 34.1932 336.024C35.1444 332.628 32.6985 331.405 29.9809 330.386C29.1656 330.046 29.3694 328.688 30.5924 328.688C34.2612 327.94 34.5329 325.291 32.9023 323.117C31.2718 320.943 33.9215 320.128 33.9215 318.701C34.3971 315.78 35.1444 312.587 30.3206 311.908C28.69 311.636 28.2145 309.666 29.913 307.424C31.6115 305.182 32.3588 305.25 34.397 308.035C35.2123 308.715 35.8917 309.054 36.2994 308.035C37.0206 305.711 38.2388 303.571 39.8696 301.765C41.5003 299.958 43.5044 298.528 45.7431 297.573C48.189 296.622 48.3249 292.478 51.8578 291.391C53.9639 290.916 52.741 288.47 51.8578 286.84C50.0939 283.244 50.2268 283.171 52.9328 281.683L52.9448 281.677L58.5839 278.823C58.6517 277.987 58.6517 277.146 58.5839 276.31C58.2442 274.476 56.8174 272.302 54.983 273.66C53.1486 275.019 51.3142 276.514 49.7516 277.94C48.189 279.367 46.3546 278.755 44.5881 278.755C44.2484 278.755 44.1805 278.62 43.5011 278.076C42.8217 277.533 43.0255 276.921 44.1805 276.31C45.3355 275.698 47.4416 275.019 47.4416 274.476C46.966 267.682 51.2463 267.274 56.138 267.682C57.9458 267.851 59.7655 267.851 61.5733 267.682C62.2353 267.633 62.8565 267.343 63.3196 266.868C63.7827 266.392 64.0557 265.764 64.0871 265.101C64.4406 264.333 64.8733 263.604 65.3779 262.927C68.7749 266.867 74.414 264.421 78.0828 266.459C81.7516 268.497 84.6051 266.595 85.828 262.451C85.8957 261.547 85.8957 260.638 85.828 259.734C85.9267 258.602 86.3608 257.526 87.0749 256.642C87.789 255.759 88.7506 255.108 89.8365 254.774C94.6891 253.908 99.3133 252.059 103.425 249.34C107.773 253.212 107.365 246.418 109.335 246.418C114.635 245.875 119.255 242.41 124.826 243.226C125.234 243.293 126.592 241.935 126.253 241.663C125.913 241.391 125.981 240.848 125.166 240.848H122.584H114.431C113.159 240.819 111.945 240.309 111.034 239.421C110.819 237.688 111.28 235.938 112.32 234.536C111.768 234.847 111.204 235.139 110.631 235.411C110.628 235.549 110.626 235.686 110.626 235.821C110.595 235.687 110.595 235.547 110.626 235.413C110.628 235.412 110.63 235.412 110.631 235.411C110.636 235.162 110.644 234.91 110.647 234.657C104.464 235.403 99.1995 239.04 92.9618 240.101C91.1346 240.672 89.4712 241.673 88.1116 243.021C86.752 244.369 85.7358 246.023 85.1486 247.845C81.6837 248.457 77.7431 247.03 77.7431 243.973C77.1996 239.353 73.1911 235.549 74.2102 230.386C74.531 228.859 74.4285 227.274 73.9136 225.801C73.3987 224.328 72.491 223.024 71.2888 222.03C68.3673 219.38 64.9703 216.731 65.9215 211.908C63.6794 209.53 61.7771 206.201 58.1762 205.114C56.1265 204.264 54.3096 202.936 52.8769 201.242C51.1783 199.815 49.4119 197.438 50.1593 195.739C50.9066 194.041 53.1486 194.041 54.9151 194.041H56.206C56.8724 193.502 57.3486 192.764 57.5648 191.935C57.6509 191.529 57.6404 191.108 57.5342 190.707C57.428 190.306 57.229 189.935 56.9533 189.625C55.1189 188.402 52.4013 187.179 51.2463 186.432C50.0913 185.685 47.1019 187.111 47.9852 183.918C48.3625 182.91 48.8191 181.933 49.3505 180.997H48.121C48.121 180.88 48.1256 180.767 48.1347 180.658H44.3164C42.2015 176.954 39.7206 173.472 36.9108 170.264C35.4161 168.837 32.4947 168.429 33.9894 165.78C34.3125 165.315 34.7275 164.921 35.2087 164.622C35.69 164.324 36.2273 164.127 36.7876 164.044C37.3479 163.962 37.9192 163.995 38.4662 164.141C39.0132 164.288 39.5244 164.545 39.9682 164.897C42.9576 167.274 44.6561 166.188 46.1508 163.606C47.4359 161.432 48.549 159.16 49.4798 156.812C49.7516 156.201 48.7325 155.25 48.7325 154.435C48.3592 154.539 47.9955 154.676 47.6454 154.842L42.5499 158.647C39.9682 156.269 39.017 157.356 38.6094 160.345C38.4735 161.568 37.7941 161.772 36.775 161.092C35.7558 160.413 34.6688 159.938 33.5817 159.326C35.4161 156.065 35.8917 151.989 40.3758 150.63C42.2102 150.019 41.9384 148.117 41.6667 145.807C41.3949 143.497 40.5117 143.158 37.862 143.022C35.2123 142.886 32.3588 143.565 30.2527 141.188C29.5733 140.44 28.9618 140.848 28.0786 141.595C25.2251 144.109 22.7113 141.663 21.2845 140.101C19.8578 138.538 21.5563 137.927 22.3036 137.587C23.051 137.247 24.4777 136.908 24.4777 136.568C24.5456 134.802 23.3227 134.802 22.0319 134.802H17.9554C16.5287 134.87 15.3057 135.073 14.8302 133.035C14.3546 130.997 15.3737 129.435 17.5478 129.435C18.2272 129.299 18.8387 128.484 19.4501 128.008C18.7723 127.484 18.0155 127.072 17.2081 126.785C16.3035 126.718 15.3951 126.718 14.4905 126.785C14.0624 126.847 13.6277 126.847 13.1996 126.785C12.8978 126.642 12.6286 126.438 12.4086 126.186C12.1887 125.935 12.0227 125.641 11.9208 125.322C11.819 125.004 11.7834 124.668 11.8164 124.336C11.8493 124.003 11.9501 123.681 12.1125 123.389C13.2675 121.486 14.2187 119.856 12.1125 117.818C12.724 117.41 13.3355 116.527 13.879 116.527C17.1401 117.139 20.5372 119.788 23.9342 119.312C27.3312 118.837 31.2038 117.818 34.1253 121.011L42.6858 118.497C43.0255 118.429 43.9767 118.022 43.637 117.682C43.2973 117.342 43.0255 116.731 42.6179 116.731C40.7155 115.916 38.1338 114.014 36.9108 114.625C33.31 116.323 30.9321 117.546 30.1168 112.383C29.9349 111.999 29.6534 111.671 29.3015 111.432C26.5159 113.334 23.7983 114.353 21.0128 111.432C15.5096 116.255 10.2781 112.791 4.91083 111.432C2.53291 110.889 0.426758 110.617 0.426758 107.696C0.262485 106.13 0.646905 104.556 1.51432 103.243C2.38174 101.93 3.67834 100.958 5.1826 100.495C6.48169 100.049 7.892 100.049 9.19108 100.495C10.2102 100.97 10.6858 102.465 11.3652 103.484C12.9958 105.861 15.1019 106.133 16.4607 104.095C17.0504 102.972 17.5722 101.816 18.0234 100.63L21.7601 104.367C21.828 104.435 21.6242 104.639 21.0128 105.386C20.4013 106.133 20.4013 106.88 20.4013 107.56C21.2031 107.891 22.0508 108.097 22.9151 108.171C23.7656 107.916 24.5372 107.448 25.1571 106.812C28.3503 103.823 28.2145 102.465 24.4098 100.019C21.828 98.3886 21.5563 97.1658 23.4586 94.856C24.3574 93.8324 25.3099 92.8573 26.3121 91.9348C27.1953 91.1196 26.7198 90.5082 26.7198 89.7609C26.0404 83.7826 25.6327 84.1223 30.4565 83.7826C35.2803 83.4429 40.4437 85.2092 44.8599 81.8125C47.8493 84.1902 50.7707 82.1522 52.8769 80.7935C53.8598 80.0654 55.0507 79.6724 56.2739 79.6724C57.4971 79.6724 58.688 80.0654 59.6709 80.7935C59.9821 80.9218 60.3189 80.9762 60.6547 80.9522C60.9905 80.9282 61.3161 80.8266 61.6059 80.6554C61.8957 80.4841 62.1418 80.2479 62.3248 79.9654C62.5078 79.6828 62.6226 79.3617 62.6603 79.0272C62.8392 78.3851 62.7877 77.7007 62.5147 77.0926C62.2417 76.4846 61.7644 75.9913 61.1656 75.6984C60.0106 75.087 57.8365 74.4755 57.8365 74C58.38 67.2065 54.0318 67.2065 49.3439 67.2065C48.4607 62.8587 52.5372 60.3451 53.3524 56.5408C53.7395 54.8511 54.5747 53.2969 55.7703 52.0417C56.9659 50.7865 58.4776 49.8765 60.1465 49.4076C62.2224 48.6072 64.2045 47.5821 66.0573 46.3506C67.8917 45.2636 69.2505 46.1467 70.8811 46.9619C75.5011 49.0679 75.6369 49.0679 79.1019 44.6522C80.3248 43.0897 81.2081 43.9728 82.1592 44.6522C82.5823 45.0337 83.0899 45.3094 83.6403 45.4566C84.1907 45.6038 84.7682 45.6183 85.3252 45.4989C85.8823 45.3796 86.4031 45.1297 86.8449 44.7699C87.2866 44.4102 87.6367 43.9507 87.8663 43.4294C89.7007 40.5082 91.0595 37.2473 92.69 34.1223C93.1993 32.8784 94.0034 31.777 95.0332 30.913C96.0629 30.049 97.2873 29.4485 98.6008 29.163C100.299 28.8234 100.775 28.2119 99.3482 26.3777C97.9214 24.5435 99.3482 24.0679 100.639 24.2038C101.93 24.3397 103.017 25.3587 104.308 25.7663C108.724 27.1929 111.985 26.3098 113.48 22.981C114.975 19.6522 116.537 17.9538 120.274 18.3614C122.057 18.5651 123.858 18.5651 125.641 18.3614C126.297 18.2246 126.974 18.2277 127.628 18.3706C128.282 18.5134 128.899 18.7928 129.437 19.1904C129.976 19.588 130.425 20.0949 130.754 20.6778C131.083 21.2608 131.286 21.9068 131.348 22.5734C131.62 23.9321 132.435 24.2038 133.047 22.5734C133.658 20.9429 133.251 19.3804 136.104 18.7011C138.958 18.0217 141.539 20.6712 143.442 20.3994C145.344 20.1277 147.11 17.1386 149.285 19.7201C151.459 22.3016 153.021 17.9538 154.788 19.7201C155.671 20.4188 156.685 20.9347 157.769 21.238C158.854 21.5412 159.988 21.6257 161.106 21.4864C163.338 21.5127 165.506 20.7418 167.221 19.3125C168.028 18.9263 168.908 18.7178 169.803 18.7011C173.675 18.1576 178.023 19.9918 181.217 16.3234C185.293 16.1196 189.301 15.7799 193.378 15.7799C194.204 15.5201 194.984 15.1302 195.688 14.625C195.05 14.0982 194.341 13.6637 193.582 13.3342C192.681 13.1993 191.765 13.1993 190.864 13.3342C190.537 13.362 190.208 13.3238 189.897 13.2218C189.585 13.1199 189.297 12.9563 189.05 12.7408C188.803 12.5254 188.601 12.2623 188.458 11.9675C188.314 11.6726 188.232 11.3519 188.214 11.0245C188.105 10.7039 188.075 10.3616 188.126 10.0268C188.177 9.69194 188.308 9.37437 188.508 9.10102C188.708 8.82766 188.971 8.60658 189.275 8.45653C189.579 8.30649 189.914 8.23193 190.253 8.23913C193.921 8.30707 196.367 7.42391 197.047 3.48369C197.175 3.04571 197.392 2.63878 197.684 2.28818C197.976 1.93758 198.338 1.65079 198.745 1.44565C199.789 0.712944 201.008 0.267773 202.278 0.154877C203.637 0.222811 204.316 0.902158 204.384 2.9402C204.452 4.97825 203.909 7.83151 207.034 7.83151C207.306 6.47282 208.121 5.31793 209.344 5.31793C212.401 5.4538 216.206 5.25 218.516 6.88043C220.826 8.51087 220.826 6.13315 220.826 5.18206C221.709 2.19293 223.611 2.46466 226.261 2.60053C228.911 2.7364 228.911 5.11412 228.911 6.47281V10.5489C228.883 10.8792 228.921 11.2118 229.022 11.5274C229.123 11.8431 229.286 12.1356 229.5 12.3882C229.715 12.6408 229.978 12.8484 230.273 12.9991C230.568 13.1498 230.89 13.2406 231.221 13.2663C233.469 13.2733 235.675 13.8833 237.607 15.0326C239.577 16.663 240.393 13.606 242.091 13.606C242.947 13.7602 243.788 13.9875 244.605 14.2853C247.798 15.5761 247.866 15.5761 248.885 14.2853C250.788 11.6359 251.535 7.89944 255.679 6.94836C256.97 6.67662 257.718 4.23096 258.669 2.80433C259.076 2.46466 258.805 1.98914 259.076 1.58153C259.348 1.17392 260.028 0.562495 260.028 0.562495C260.503 1.30978 261.386 1.9212 261.386 2.66848C261.624 3.99394 261.624 5.35117 261.386 6.67664C260.367 10.7527 260.707 12.1114 263.764 13.4701C264.444 13.7419 265.395 12.9945 266.278 12.9945C266.241 12.2925 266.08 11.6026 265.803 10.9565C265.259 10.0054 265.055 8.91847 265.803 8.91847C268.928 8.30706 272.936 8.37499 275.178 8.30706C277.42 8.23912 278.168 6.20108 278.507 4.91032C278.847 3.61956 280.274 2.87228 280.885 4.57065C281.497 6.26902 281.497 8.23913 283.943 8.23913C285.369 8.375 286.728 8.98642 285.369 10.6848C284.011 12.3832 282.584 14.1494 281.293 15.9157C281.119 16.3519 281.119 16.8382 281.293 17.2744C281.565 18.1576 282.312 18.837 282.992 18.1576L289.038 12.7228C289.694 12.3121 290.403 11.9921 291.144 11.7717C291.416 12.587 292.028 13.4022 292.028 14.2853C291.958 15.1671 291.958 16.053 292.028 16.9348C292.231 17.5462 293.522 18.3614 293.59 18.3614C293.658 18.3614 294.406 17.4103 294.406 17.4103C294.473 14.4212 296.512 14.8967 298.754 13.1984C300.996 11.5 302.219 12.4511 304.393 13.1984C307.463 13.9222 310.635 14.1061 313.769 13.7418C316.35 13.6739 320.495 14.0136 321.174 12.1114C321.854 10.2092 321.854 7.55978 321.854 5.31793C322.155 4.51728 322.566 3.76267 323.076 3.07607C323.62 3.75542 324.503 4.29891 324.503 5.04619C324.527 5.70774 324.766 6.34359 325.182 6.85812C325.599 7.37265 326.171 7.73806 326.813 7.89944H332.248C334.475 8.32952 336.777 8.14581 338.907 7.36795C341.038 6.59008 342.916 5.24739 344.342 3.48369C345.904 1.58152 347.263 2.53261 349.03 5.31793C350.796 8.10326 352.019 8.44294 354.193 6.67664C355.28 5.86142 356.028 4.70651 357.115 3.82336C358.162 2.9746 359.439 2.45679 360.782 2.33581C362.125 2.21483 363.474 2.49617 364.656 3.14402C365.675 3.95924 366.219 5.58967 367.917 3.95923C368.293 3.53837 368.754 3.20164 369.269 2.97109C369.784 2.74054 370.342 2.62137 370.907 2.62137C371.471 2.62137 372.029 2.74054 372.544 2.97109C373.059 3.20164 373.52 3.53837 373.896 3.95923C374.621 4.44686 375.395 4.85674 376.206 5.18206C377.021 5.65761 379.331 5.11412 377.769 7.2201C377.429 7.96738 376.138 7.62771 375.323 7.96739C374.918 8.16085 374.603 8.50085 374.439 8.91847C374.372 9.12227 374.847 9.80163 374.847 9.80163C375.144 10.1041 375.521 10.3161 375.934 10.413C379.909 10.4459 383.829 11.3503 387.416 13.0625C390.984 13.4409 394.583 13.4409 398.151 13.0625C399.781 13.1984 401.208 14.8288 402.839 15.4402C403.26 15.4947 403.689 15.4626 404.098 15.3457C404.507 15.2289 404.887 15.0299 405.217 14.7609C405.503 14.4382 405.723 14.0619 405.863 13.6537C406.003 13.2456 406.06 12.8137 406.032 12.3832C405.964 11.5679 405.285 11.2283 404.877 10.0734C404.469 8.91848 403.518 7.35597 403.926 6.47281C404.394 5.69834 405.127 5.11998 405.989 4.84511C406.851 4.57025 407.784 4.61757 408.614 4.97827C411.166 5.6607 413.596 6.738 415.815 8.17118C416.699 8.71466 417.174 10.481 417.174 11.7038C417.311 12.9682 417.311 14.2437 417.174 15.5082C418.864 15.6942 420.574 15.4367 422.134 14.7609C425.943 12.4999 429.866 10.4365 433.887 8.5788C435.431 7.65352 437.212 7.19918 439.01 7.27159C440.808 7.344 442.546 7.94002 444.011 8.98642C446.524 11.2283 451.076 8.71468 452.231 12.2473C453.386 15.7799 454.949 16.3913 458.006 14.3532C459.093 13.5939 460.356 13.1261 461.675 12.9945C465.616 12.5869 469.896 14.0815 473.225 10.6168C477.648 9.8254 482.206 10.3449 486.338 12.1114C488.811 13.2358 491.602 13.4522 494.219 12.7228C501.208 9.88015 509.005 9.73488 516.096 12.3152C520.716 9.66575 525.064 14.2174 529.684 12.8587C531.382 12.8587 533.828 13.7419 534.983 12.8587C540.418 8.85055 546.397 10.7527 552.104 10.7527C553.735 10.7527 555.637 12.1793 557.064 12.4511C558.49 12.7228 560.732 11.1603 561.548 11.9755C562.363 12.7908 562.975 12.7908 563.79 11.9755C566.304 9.39402 568.478 10.6848 570.584 12.7908C571.535 13.7418 572.622 15.1685 573.709 15.1005C574.796 15.0326 575.815 13.538 576.766 12.587C577.31 11.8589 578.036 11.2871 578.871 10.9293C579.706 10.5715 580.62 10.4403 581.522 10.5489C583.991 11.4208 586.509 12.1466 589.064 12.7228C590.898 12.9946 592.529 9.7337 594.839 12.2473C595.79 13.1304 597.285 12.7908 598.575 12.2473C601.944 11.9757 605.33 11.9757 608.699 12.2473C609.989 13.0625 611.416 13.4701 612.367 12.2473C614.677 9.52989 618.21 14.8967 620.18 10.8886C621.473 10.5041 622.842 10.452 624.16 10.737C625.478 11.022 626.703 11.6349 627.722 12.519C631.051 9.46194 634.924 11.5 637.369 12.519C639.815 13.538 641.786 10.0054 644.843 10.3451C651.433 11.0924 658.363 8.78261 664.546 12.8587C670.66 12.0435 677.318 15.3044 682.958 10.5489C685.947 10.8886 689.888 9.66576 692.062 11.6359C694.236 13.606 695.934 12.9266 698.108 11.6359C700.298 10.5146 702.569 9.5608 704.902 8.7826C708.096 12.1793 712.987 8.78261 716.384 11.7717C717.607 12.8587 719.238 12.4511 721.004 14.0815C722.771 15.712 723.926 15.9158 725.42 14.0815C725.932 13.1948 726.637 12.4352 727.484 11.8594C728.33 11.2835 729.296 10.9064 730.308 10.7562C731.321 10.6059 732.354 10.6864 733.332 10.9917C734.309 11.297 735.204 11.8191 735.951 12.519C736.267 12.8374 736.643 13.0901 737.057 13.2625C737.471 13.435 737.915 13.5238 738.363 13.5238C738.812 13.5238 739.255 13.435 739.669 13.2625C740.083 13.0901 740.459 12.8374 740.775 12.519C741.447 11.9299 742.237 11.4916 743.093 11.2338C743.948 10.976 744.849 10.9046 745.735 11.0245C746.389 10.9729 747.044 11.129 747.605 11.4705C748.166 11.8119 748.605 12.3214 748.86 12.9266C749.336 14.0815 749.811 16.2554 750.694 15.5082C753.004 13.538 755.11 16.3913 756.401 15.5082C757.81 14.3837 759.559 13.7712 761.361 13.7712C763.163 13.7712 764.912 14.3837 766.321 15.5082C768.631 17.0707 770.397 16.1875 771.076 13.2663C771.126 12.8102 771.299 12.3763 771.577 12.0116C771.856 11.6469 772.228 11.3653 772.655 11.1974C773.082 11.0294 773.547 10.9815 773.999 11.0588C774.451 11.1361 774.874 11.3356 775.221 11.6359C777.599 13.1304 779.501 14.6929 782.355 12.1793C783.375 11.2721 784.692 10.7709 786.057 10.7709C787.422 10.7709 788.74 11.2721 789.76 12.1793C790.434 12.7971 791.232 13.2632 792.101 13.5461C792.97 13.829 793.89 13.922 794.798 13.819C795.706 13.7159 796.581 13.4192 797.365 12.9488C798.148 12.4785 798.822 11.8454 799.34 11.0924C800.125 10.0652 801.165 9.26134 802.357 8.76078C803.549 8.26021 804.851 8.08038 806.134 8.23913C810.074 8.78261 814.355 7.15216 817.887 10.2092C820.605 9.1902 823.459 6.94835 826.176 10.2092C831.747 6.33694 836.843 12.587 842.414 11.0245C842.618 10.9565 843.637 11.2283 843.365 11.8397C843.093 12.4511 842.618 13.4701 842.278 13.4701C840.707 13.2682 839.111 13.4891 837.654 14.1101C836.197 14.7311 834.932 15.7297 833.989 17.0027C832.427 19.1087 830.185 19.1087 828.011 19.1087V21.6223C834.631 22.7868 841.446 21.3509 847.034 17.6141C848.491 16.6285 850.241 16.1729 851.994 16.3234C856.07 16.3234 861.166 15.9837 864.223 16.3234C867.28 16.663 869.59 13.606 871.696 13.9457C873.803 14.2853 874.686 16.1196 877.811 16.1196H887.323C891.671 16.3913 896.427 14.8967 900.232 18.5652C908.197 18.8021 916.032 20.651 923.263 24C926.393 24.4804 929.577 24.4804 932.707 24C935.9 24 939.569 23.9321 942.219 24C944.868 24.0679 945.412 25.3587 943.985 28.7554C943.306 29.7745 941.879 30.9293 943.985 31.6087C944.844 31.8113 945.748 31.6647 946.499 31.2011C947.5 30.681 948.377 29.9502 949.069 29.0589C949.761 28.1676 950.252 27.137 950.507 26.038C950.565 25.5942 950.74 25.1738 951.014 24.8201C951.288 24.4664 951.651 24.1923 952.067 24.0261C952.482 23.8599 952.935 23.8077 953.377 23.8747C953.82 23.9418 954.236 24.1257 954.584 24.4076C956.366 25.763 958.529 26.5236 960.767 26.5815H978.431C979.314 26.5815 980.469 26.1739 981.081 26.5815C983.73 28.4157 986.244 30.6576 989.302 27.3288C997.251 31.3369 1005.95 27.8043 1014.17 29.7065C1014.51 29.7745 1015.46 30.1821 1015.19 30.5217C1014.92 30.8614 1014.64 31.4728 1014.3 31.4728C1011.25 32.4918 1008.39 35.0734 1004.93 32.1522C1004.18 31.337 1001.6 31.9484 1000.99 32.1522C1000.38 32.356 1000.17 33.2391 999.696 34.2581C999.221 35.2772 999.561 36.5 1000.65 36.5C1004.66 36.8397 1008.66 37.1793 1012.67 37.1793C1014.78 37.2473 1015.73 35.481 1017.02 34.3261C1018.42 33.1517 1019.76 31.9045 1021.03 30.5897C1022.25 29.0951 1023.34 29.6386 1024.29 30.5897C1024.8 31.0261 1025.43 31.2985 1026.1 31.3713C1026.76 31.444 1027.44 31.3136 1028.03 30.9973C1029.18 30.5897 1030.27 29.5027 1031.42 29.8424C1032.58 30.1821 1033.39 31.6766 1034.82 30.1821C1036.25 28.6875 1037.27 30.0462 1038.15 30.8614C1039.99 32.7636 1041.82 34.5299 1044.54 32.2201C1045.92 32.9809 1047.03 34.1597 1047.7 35.5875C1048.37 37.0152 1048.57 38.6188 1048.27 40.1685L1048.23 40.3874C1047.19 45.8092 1047.17 45.9017 1050.86 47.913C1051.74 48.3886 1054.18 47.913 1052.69 49.9511C1049.7 54.2989 1051.54 57.5598 1053.64 61.0924C1054.05 61.4321 1054.05 61.9755 1054.05 62.3831C1054.34 62.8611 1054.75 63.2561 1055.24 63.5303C1055.72 63.8044 1056.27 63.9484 1056.83 63.9484C1057.39 63.9484 1057.94 63.8044 1058.43 63.5303C1058.92 63.2561 1059.33 62.8611 1059.62 62.3831C1060.5 61.3641 1061.86 60.0734 1061.86 59.1902C1060.84 54.0951 1064.99 52.0571 1067.64 49.2038C1068.72 48.0489 1069.95 48.5245 1069.95 50.4266C1069.47 54.3668 1072.94 56.6766 1073.48 60.1413C1073.55 60.481 1074.36 60.8886 1074.36 60.8886C1074.74 60.6596 1075.05 60.3303 1075.25 59.9375C1075.64 57.788 1076.2 55.6747 1076.94 53.6196C1077.42 52.5326 1078.92 51.9891 1079.93 51.1739C1080.27 51.9891 1080.95 52.8043 1080.95 53.5516C1081.09 55.784 1081.82 57.94 1083.06 59.8016C1084.55 62.519 1082.18 63.8777 1080.34 64.4212C1078.51 64.9647 1077.76 68.4293 1078.51 70.1956C1078.7 70.828 1079.1 71.3779 1079.64 71.759C1080.18 72.1401 1080.84 72.331 1081.5 72.3016H1088.29C1089.15 72.4083 1089.99 72.6135 1090.8 72.913C1091.28 72.981 1091.28 73.7283 1091.28 73.7283C1091.03 74.0888 1090.71 74.3903 1090.33 74.6114L1087.2 76.3777C1088.37 76.8863 1089.57 77.2953 1090.8 77.6005C1092.05 77.7023 1093.3 77.7023 1094.54 77.6005C1094.68 80.1821 1094.68 82.6277 1098.48 83.1033C1100.45 83.375 1099.23 85.1413 1098.48 86.0924C1097.73 87.0435 1096.85 87.519 1099.03 87.9946C1101.2 88.4701 1103.37 88.4701 1105.48 88.4701V93.7011H1110.64C1110.98 93.6826 1111.31 93.7321 1111.62 93.8467C1111.93 93.9613 1112.22 94.1386 1112.46 94.3675C1112.7 94.5965 1112.9 94.8724 1113.03 95.1783C1113.16 95.4843 1113.23 95.8138 1113.23 96.1467C1113.36 99.2038 1113.77 102.94 1111.8 105.114C1109.83 107.288 1112.14 109.938 1113.02 110.889C1113.9 111.84 1114.11 113.13 1116.28 111.364C1118.46 109.598 1122.06 109.326 1122.53 105.522C1122.67 104.842 1126 104.639 1126 105.522C1126.16 106.241 1126.04 106.996 1125.66 107.628C1125.02 108.233 1124.63 109.045 1124.54 109.917C1124.45 110.79 1124.68 111.664 1125.18 112.383C1126.41 114.217 1127.08 116.459 1128.44 118.158C1129.88 120.442 1130.39 123.187 1129.87 125.834C1129.92 126.278 1129.87 126.727 1129.73 127.151C1129.59 127.575 1129.36 127.965 1129.06 128.293C1128.76 128.621 1128.39 128.881 1127.98 129.054C1127.57 129.228 1127.12 129.311 1126.68 129.299C1124.4 129.361 1122.12 129.611 1119.88 130.046C1119.41 130.114 1118.93 131.269 1118.93 132.084C1122.4 133.035 1120.83 137.451 1124.23 138.878L1124.33 138.918C1127.69 140.329 1130.81 141.641 1129.87 146.418C1129.73 147.438 1131.16 148.524 1132.79 148.524C1133.91 148.43 1135.04 148.595 1136.09 149.008C1137.14 149.42 1138.08 150.068 1138.84 150.902C1140.06 152.125 1139.99 152.804 1137.48 153.959C1136.9 154.162 1136.38 154.503 1135.97 154.953C1135.55 155.404 1135.26 155.949 1135.1 156.541C1131.18 156.228 1127.27 157.206 1123.96 159.326C1123.17 159.682 1122.51 160.268 1122.06 161.008C1121.61 161.748 1121.4 162.606 1121.45 163.47C1121.51 166.188 1120.49 167.546 1117.64 167.546C1116.36 167.645 1115.1 168.015 1113.97 168.633C1113.16 169.041 1113.43 172.098 1114.31 172.098C1115.54 172.456 1116.79 172.751 1118.05 172.981C1119.88 173.457 1122.33 171.826 1123.35 174.679L1118.32 175.766C1117.89 175.873 1117.5 176.083 1117.17 176.378C1116.49 176.853 1116.49 177.668 1117.51 178.348C1118.87 179.415 1120.33 180.37 1121.85 181.201C1122.43 181.43 1122.94 181.788 1123.35 182.247C1123.77 182.707 1124.07 183.256 1124.23 183.851C1131.64 185.549 1134.49 188.266 1134.97 195.06C1135.17 198.117 1135.71 200.155 1139.11 200.766C1140.54 201.038 1140.47 201.921 1139.11 202.533L1135.58 204.231C1136.76 204.627 1137.86 205.225 1138.84 205.997Z" fill="#F7F7F7"/>
<path d="M27.7389 75.3587C31.6795 75.3587 35.4841 71.7581 39.6285 74.7473C39.6285 74.7473 40.5117 74.7473 40.9194 74.7473C41.327 74.7473 42.0744 73.7962 41.5308 72.7772C38.6094 67.5462 33.0383 67.0027 27.9427 65.1005C25.9724 64.2853 20.6731 68.4973 20.5372 70.5353V73.1848C20.4005 74.9938 20.4005 76.8105 20.5372 78.6196C20.6888 79.0191 20.9348 79.376 21.2542 79.66C21.5736 79.9439 21.957 80.1463 22.3716 80.25C24.1593 80.351 25.9512 80.351 27.7389 80.25C29.0298 80.25 30.2527 80.25 30.3206 78.5516C30.3206 78.2119 28.8939 77.8723 28.1465 77.4647C27.3992 77.0571 26.8557 76.5136 26.1762 76.038C26.9915 75.9022 27.3992 75.3587 27.7389 75.3587Z" fill="#F7F7F7"/>
<path d="M1104.8 75.4266C1104.92 75.1195 1104.96 74.791 1104.93 74.4643C1104.91 74.1375 1104.81 73.8205 1104.65 73.5355C1104.49 73.2505 1104.26 73.0045 1104 72.8148C1103.73 72.6251 1103.42 72.4963 1103.1 72.4375C1101.37 72.13 1099.6 72.13 1097.87 72.4375C1097.26 72.4789 1096.66 72.6448 1096.11 72.9251C1095.56 73.2054 1095.07 73.5942 1094.68 74.0679C1094.39 75.2511 1094.39 76.4852 1094.68 77.6685C1097.67 77.6685 1100.66 77.6685 1103.65 77.6685C1103.92 77.3288 1104.6 76.3777 1104.8 75.4266Z" fill="#F7F7F7"/>
<path d="M159.408 1.64944C158.796 1.98912 157.573 2.26085 157.369 2.80432C157.001 3.72812 156.841 4.72144 156.899 5.71412C156.957 6.70679 157.232 7.67463 157.705 8.5493C158.178 9.42398 158.837 10.1842 159.636 10.7762C160.435 11.3682 161.355 11.7776 162.329 11.9755C162.873 11.9755 163.892 11.432 164.639 11.0924C161.65 8.64672 163.348 4.2989 160.834 1.64944C160.563 1.64944 159.951 1.64944 159.408 1.64944Z" fill="#F7F7F7"/>
<path d="M65.2421 372.234C62.3004 372.064 59.3514 372.064 56.4098 372.234C56.6032 373.163 56.9894 374.042 57.5435 374.814C58.0976 375.585 58.8073 376.232 59.6268 376.712C60.4462 377.192 61.3573 377.495 62.3011 377.601C63.2449 377.707 64.2005 377.615 65.1062 377.329C65.7177 377.329 66.7368 376.174 66.6688 375.63C66.6009 375.087 65.8535 372.37 65.2421 372.234Z" fill="#F7F7F7"/>
<path d="M50.499 365.033C50.2124 364.716 49.8309 364.502 49.4119 364.421C48.8684 364.965 48.1211 365.644 48.1211 366.255C47.9396 368.516 47.9396 370.788 48.1211 373.049C48.1211 374.272 49.1402 374.476 49.9555 373.728C51.6109 372.429 53.7045 371.821 55.7983 372.03C55.5266 368.497 52.3334 367.274 50.499 365.033Z" fill="#F7F7F7"/>
<path d="M288.699 2.39676C288.433 2.69941 288.24 3.05861 288.134 3.44707C288.028 3.83553 288.012 4.24302 288.087 4.63859C288.158 5.02803 288.317 5.39599 288.553 5.71404C288.788 6.03209 289.094 6.29171 289.446 6.47283C291.144 7.08424 295.425 4.231 295.425 2.6685C295.425 2.6685 294.949 1.9212 294.609 1.85326C292.571 1.24185 290.465 0.630451 288.699 2.39676Z" fill="#F7F7F7"/>
<path d="M389.59 8.44291C389.81 8.81088 390.144 9.09709 390.541 9.25812C391.061 9.30732 391.584 9.30732 392.104 9.25812C393.733 9.3707 395.367 9.3707 396.996 9.25812C397.811 9.25812 398.49 8.51085 399.238 8.10324C398.558 7.6277 398.015 6.74455 397.335 6.67661C395.073 6.52922 392.804 6.52922 390.541 6.67661C390.134 6.88042 389.59 7.89943 389.59 8.44291Z" fill="#F7F7F7"/>
<path d="M83.0425 388.878C82.7328 388.858 82.4227 388.911 82.1376 389.034C81.8524 389.156 81.6003 389.344 81.4016 389.582C81.2029 389.821 81.0634 390.103 80.9943 390.405C80.9253 390.708 80.9287 391.022 81.0042 391.323C81.0042 392.818 81.8195 393.497 83.2463 393.633C83.6499 393.684 84.0599 393.633 84.439 393.486C84.8181 393.338 85.1545 393.099 85.4176 392.788C85.6807 392.478 85.8622 392.107 85.9457 391.709C86.0293 391.311 86.0121 390.898 85.8959 390.508C85.8173 390.213 85.6808 389.936 85.4944 389.694C85.3079 389.451 85.0752 389.249 84.8098 389.097C84.5444 388.945 84.2515 388.848 83.9481 388.81C83.6447 388.773 83.3369 388.795 83.0425 388.878Z" fill="#F7F7F7"/>
<path d="M52.0616 74.8152C52.0616 74.3397 52.6731 73.1168 52.4692 72.981C51.781 72.6103 51.0088 72.4231 50.2272 72.4375C49.9113 72.4395 49.6 72.5126 49.3162 72.6512C49.0324 72.7899 48.7834 72.9906 48.5876 73.2385C48.3919 73.4864 48.2545 73.7751 48.1855 74.0833C48.1165 74.3915 48.1177 74.7113 48.189 75.019L49.1402 77.1929L50.2272 76.5136C50.9019 76.0199 51.5175 75.45 52.0616 74.8152Z" fill="#F7F7F7"/>
<path d="M43.0934 65.3723C43.0617 65.7793 43.0617 66.1881 43.0934 66.5951C43.0454 66.8989 43.0585 67.2092 43.132 67.5078C43.2055 67.8064 43.3379 68.0873 43.5214 68.3341C43.7049 68.5809 43.9359 68.7886 44.2007 68.9449C44.4655 69.1012 44.7589 69.2031 45.0637 69.2446C47.1019 69.7201 48.0531 68.6332 48.189 66.731C47.1517 66.3099 46.1704 65.7623 45.2675 65.1005C43.9087 64.3533 43.4331 64.2853 43.0934 65.3723Z" fill="#F7F7F7"/>
<path d="M1133.81 161.704C1133.81 161.704 1134.56 161.704 1134.97 161.704C1135.27 161.762 1135.59 161.756 1135.9 161.688C1136.21 161.619 1136.49 161.488 1136.75 161.304C1137 161.119 1137.22 160.885 1137.38 160.615C1137.54 160.345 1137.64 160.045 1137.68 159.734C1138.09 157.764 1137.14 156.677 1135.17 156.541C1135.17 157.22 1134.63 157.832 1134.35 158.579C1134.08 159.326 1131.91 160.413 1133.81 161.704Z" fill="#F7F7F7"/>
<path d="M1109.76 90.8478C1110.17 90.1458 1110.49 89.3919 1110.71 88.606C1111.12 87.0435 1110.1 86.2283 1108.74 85.9565C1107.38 85.6848 1105.68 86.5 1105.62 88.538L1108.67 90.1685L1109.76 90.8478Z" fill="#F7F7F7"/>
<path d="M26.9915 160.413C26.9915 160.957 27.7389 161.84 28.2144 161.908C28.5889 162.059 28.9957 162.112 29.3965 162.062C29.7972 162.013 30.1787 161.862 30.5049 161.624C30.8312 161.386 31.0915 161.069 31.2614 160.702C31.4312 160.336 31.5049 159.933 31.4756 159.53H27.8747C27.8747 159.53 26.9236 160.345 26.9915 160.413Z" fill="#F7F7F7"/>
<path d="M1057.51 45.6032C1057.16 45.8089 1056.85 46.0602 1056.56 46.3505C1057.62 46.804 1058.71 47.1676 1059.82 47.4375C1059.82 47.4375 1060.44 46.4864 1060.71 46.0108C1059.76 44.4483 1058.6 45.1956 1057.51 45.6032Z" fill="#F7F7F7"/>
<path d="M85.5563 251.853C86.3036 251.853 87.5945 251.853 87.7983 251.174C88.5457 249.272 86.9151 249.543 85.896 249.408C84.8769 249.272 84.3333 249.408 83.586 249.408C83.5286 249.992 83.7029 250.576 84.0713 251.033C84.4398 251.49 84.973 251.785 85.5563 251.853Z" fill="#F7F7F7"/>
<path d="M33.9894 288.81C32.9363 288.335 31.8455 287.949 30.7282 287.655C30.7282 287.655 30.0488 288.674 29.7091 289.217L31.8832 290.033L33.9894 288.81Z" fill="#F7F7F7"/>
<path d="M739.892 369.313H740.231C740.231 369.313 739.892 369.177 739.892 369.313Z" fill="#F7F7F7"/>
<path d="M735.408 370.128C735.408 370.739 736.155 371.554 736.631 371.69C737.005 371.823 737.407 371.862 737.8 371.805C738.193 371.747 738.567 371.595 738.888 371.361C739.209 371.127 739.468 370.818 739.643 370.461C739.818 370.104 739.903 369.71 739.892 369.312H736.087C735.802 369.53 735.57 369.808 735.408 370.128Z" fill="#F7F7F7"/>
<path d="M205.743 392.682C205.743 392.682 204.792 392.003 204.316 391.663C202.89 392.682 203.365 393.837 203.841 394.992C204.047 395.341 204.298 395.661 204.588 395.943C205.063 394.89 205.449 393.799 205.743 392.682Z" fill="#F7F7F7"/>
<path d="M148.062 14.8288C149.964 14.8288 151.187 14.3533 151.391 12.3832C150.191 12.3146 148.989 12.3146 147.79 12.3832C147.79 12.3832 146.839 13.0625 146.907 13.1984C146.975 13.3343 147.586 14.7609 148.062 14.8288Z" fill="#F7F7F7"/>
<path d="M305.14 5.99729C305.888 6.47283 306.567 5.99728 306.091 5.11413C305.616 4.23097 305.004 4.50272 304.325 4.29892C303.645 4.09511 304.665 5.72555 305.14 5.99729Z" fill="#F7F7F7"/>
<path d="M152.546 10.2772C152.07 10.2772 151.934 11.3641 151.73 12.0435C151.527 12.7228 153.225 11.7038 153.497 11.2283C153.769 10.7527 153.225 9.80165 152.546 10.2772Z" fill="#F7F7F7"/>
<path d="M151.798 12.0435H151.459C151.459 12.0435 151.798 12.1793 151.798 12.0435Z" fill="#F7F7F7"/>
<path d="M3.41616 93.2935L3.8238 92.5462L3.07646 91.663L2.26117 92.4103L3.41616 93.2935Z" fill="#F7F7F7"/>
<path d="M1144.61 156.269C1145.56 155.793 1145.77 155.182 1145.09 154.706C1144.41 154.231 1144.55 154.706 1144.27 154.706C1144 154.706 1143.87 155.318 1143.93 155.522C1144 155.726 1144.55 156.337 1144.61 156.269Z" fill="#F7F7F7"/>
<path d="M41.5308 183.103C42.0064 183.103 42.1423 182.016 42.3461 181.405C42.5499 180.793 40.9194 181.405 40.5797 182.22C40.2399 183.035 40.7835 183.647 41.5308 183.103Z" fill="#F7F7F7"/>
<path d="M18.9745 290.916C18.9745 290.916 18.5669 291.459 18.6348 291.663C18.7716 292.017 19.0075 292.323 19.3142 292.546C20.2654 292.071 20.4013 291.459 19.7898 290.916C19.1783 290.372 19.2463 290.916 18.9745 290.916Z" fill="#F7F7F7"/>
<path d="M1097.4 335.073L1099.03 335.617V334.53C1099.03 334.53 1098.41 334.122 1098.21 334.122C1097.89 334.398 1097.62 334.719 1097.4 335.073Z" fill="#F7F7F7"/>
<path d="M93.0297 388.878C93.0297 388.878 92.4182 389.285 92.1465 389.557L93.3694 390.44L93.777 389.625C93.777 389.625 93.3015 388.878 93.0297 388.878Z" fill="#F7F7F7"/>
<path d="M61.6412 320.06V323.049H64.6306C64.6133 322.262 64.2928 321.511 63.7359 320.954C63.179 320.398 62.4286 320.077 61.6412 320.06Z" fill="#F7F7F7"/>
</svg>
